<svg width="13" height="10" viewBox="0 0 13 10" fill="none" xmlns="http://www.w3.org/2000/svg">
<path d="M1.70711 4.27824C1.31658 3.88771 0.683417 3.88771 0.292893 4.27824C-0.0976311 4.66876 -0.0976311 5.30193 0.292893 5.69245L1.70711 4.27824ZM2.87868 8.27824C3.2692 8.66876 3.90237 8.66876 4.29289 8.27824C4.68342 7.88771 4.68342 7.25455 4.29289 6.86402L2.87868 8.27824ZM3.37877 7.36403C2.98825 7.75456 2.98825 8.38772 3.37878 8.77824C3.76931 9.16877 4.40247 9.16876 4.79299 8.77823L3.37877 7.36403ZM11.864 1.7071C12.2545 1.31657 12.2545 0.683408 11.864 0.292887C11.4735 -0.097634 10.8403 -0.0976282 10.4498 0.2929L11.864 1.7071ZM0.292893 5.69245L2.87868 8.27824L4.29289 6.86402L1.70711 4.27824L0.292893 5.69245ZM4.79299 8.77823L11.864 1.7071L10.4498 0.2929L3.37877 7.36403L4.79299 8.77823Z" fill="#74B9FF"/>
</svg>
