<svg width="181" height="16" viewBox="0 0 181 16" fill="none" xmlns="http://www.w3.org/2000/svg">
<path d="M125.184 11V6.11601H123.192V4.71201H128.796V6.11601H126.792V11H125.184Z" fill="#A3A3A3"/>
<path d="M133.465 11.12C132.977 11.12 132.545 11.012 132.169 10.796C131.801 10.572 131.513 10.272 131.305 9.89601V13.556H129.697V4.71201H131.101V5.79201C131.341 5.42401 131.645 5.13601 132.013 4.92801C132.381 4.71201 132.801 4.60401 133.273 4.60401C133.697 4.60401 134.085 4.68801 134.437 4.85601C134.797 5.02401 135.109 5.26001 135.373 5.56401C135.637 5.86001 135.841 6.20401 135.985 6.59601C136.137 6.98001 136.213 7.39601 136.213 7.84401C136.213 8.45201 136.093 9.00401 135.853 9.50001C135.621 9.99601 135.297 10.392 134.881 10.688C134.473 10.976 134.001 11.12 133.465 11.12ZM132.925 9.75201C133.173 9.75201 133.397 9.70001 133.597 9.59601C133.797 9.49201 133.969 9.35201 134.113 9.17601C134.265 8.99201 134.377 8.78801 134.449 8.56401C134.529 8.33201 134.569 8.09201 134.569 7.84401C134.569 7.58001 134.525 7.33601 134.437 7.11201C134.357 6.88801 134.237 6.69201 134.077 6.52401C133.917 6.34801 133.729 6.21201 133.513 6.11601C133.305 6.02001 133.077 5.97201 132.829 5.97201C132.677 5.97201 132.521 6.00001 132.361 6.05601C132.209 6.10401 132.061 6.17601 131.917 6.27201C131.773 6.36801 131.645 6.48001 131.533 6.60801C131.429 6.73601 131.353 6.87601 131.305 7.02801V8.50401C131.401 8.73601 131.529 8.94801 131.689 9.14001C131.857 9.33201 132.049 9.48401 132.265 9.59601C132.481 9.70001 132.701 9.75201 132.925 9.75201Z" fill="#A3A3A3"/>
<path d="M136.87 9.14001C136.87 8.73201 136.982 8.37601 137.206 8.07201C137.438 7.76001 137.758 7.52001 138.166 7.35201C138.574 7.18401 139.042 7.10001 139.57 7.10001C139.834 7.10001 140.102 7.12001 140.374 7.16001C140.646 7.20001 140.882 7.26401 141.082 7.35201V7.01601C141.082 6.61601 140.962 6.30801 140.722 6.09201C140.49 5.87601 140.142 5.76801 139.678 5.76801C139.334 5.76801 139.006 5.82801 138.694 5.94801C138.382 6.06801 138.054 6.24401 137.71 6.47601L137.194 5.42001C137.61 5.14801 138.034 4.94401 138.466 4.80801C138.906 4.67201 139.366 4.60401 139.846 4.60401C140.742 4.60401 141.438 4.82801 141.934 5.27601C142.438 5.72401 142.69 6.36401 142.69 7.19601V9.20001C142.69 9.36801 142.718 9.48801 142.774 9.56001C142.838 9.63201 142.938 9.67601 143.074 9.69201V11C142.93 11.024 142.798 11.044 142.678 11.06C142.566 11.076 142.47 11.084 142.39 11.084C142.07 11.084 141.826 11.012 141.658 10.868C141.498 10.724 141.398 10.548 141.358 10.34L141.322 10.016C141.05 10.368 140.71 10.64 140.302 10.832C139.894 11.024 139.478 11.12 139.054 11.12C138.638 11.12 138.262 11.036 137.926 10.868C137.598 10.692 137.338 10.456 137.146 10.16C136.962 9.85601 136.87 9.51601 136.87 9.14001ZM140.782 9.46401C140.87 9.36801 140.942 9.27201 140.998 9.17601C141.054 9.08001 141.082 8.99201 141.082 8.91201V8.27601C140.89 8.19601 140.682 8.13601 140.458 8.09601C140.234 8.04801 140.022 8.02401 139.822 8.02401C139.406 8.02401 139.062 8.11601 138.79 8.30001C138.526 8.47601 138.394 8.71201 138.394 9.00801C138.394 9.16801 138.438 9.32001 138.526 9.46401C138.614 9.60801 138.742 9.72401 138.91 9.81201C139.078 9.90001 139.278 9.94401 139.51 9.94401C139.75 9.94401 139.986 9.90001 140.218 9.81201C140.45 9.71601 140.638 9.60001 140.782 9.46401Z" fill="#A3A3A3"/>
<path d="M144.193 11V4.71201H145.801V7.11201H148.345V4.71201H149.953V11H148.345V8.45601H145.801V11H144.193Z" fill="#A3A3A3"/>
<path d="M154.351 11.12C153.839 11.12 153.379 11.036 152.971 10.868C152.563 10.692 152.215 10.452 151.927 10.148C151.639 9.83601 151.415 9.48401 151.255 9.09201C151.103 8.70001 151.027 8.28801 151.027 7.85601C151.027 7.26401 151.159 6.72401 151.423 6.23601C151.695 5.74001 152.079 5.34401 152.575 5.04801C153.071 4.75201 153.659 4.60401 154.339 4.60401C155.019 4.60401 155.603 4.75201 156.091 5.04801C156.579 5.34401 156.943 5.73201 157.183 6.21201L155.611 6.69201C155.475 6.46001 155.295 6.28401 155.071 6.16401C154.847 6.03601 154.599 5.97201 154.327 5.97201C154.023 5.97201 153.743 6.05201 153.487 6.21201C153.239 6.36401 153.043 6.58401 152.899 6.87201C152.755 7.15201 152.683 7.48001 152.683 7.85601C152.683 8.22401 152.755 8.55201 152.899 8.84001C153.051 9.12001 153.251 9.34401 153.499 9.51201C153.747 9.67201 154.023 9.75201 154.327 9.75201C154.519 9.75201 154.699 9.72001 154.867 9.65601C155.043 9.59201 155.199 9.50401 155.335 9.39201C155.471 9.28001 155.571 9.15201 155.635 9.00801L157.207 9.48801C157.063 9.80001 156.851 10.08 156.571 10.328C156.299 10.576 155.975 10.772 155.599 10.916C155.231 11.052 154.815 11.12 154.351 11.12Z" fill="#A3A3A3"/>
<path d="M161.066 13.556V11H160.886C160.222 11 159.654 10.856 159.182 10.568C158.718 10.272 158.362 9.88801 158.114 9.41601C157.866 8.93601 157.742 8.42001 157.742 7.86801C157.742 7.30001 157.866 6.78001 158.114 6.30801C158.37 5.82801 158.73 5.44401 159.194 5.15601C159.666 4.86801 160.23 4.72401 160.886 4.72401H161.066V2.24001H162.674V4.72401H162.866C163.522 4.72401 164.086 4.86801 164.558 5.15601C165.03 5.44401 165.39 5.82801 165.638 6.30801C165.886 6.78001 166.01 7.30001 166.01 7.86801C166.01 8.42001 165.886 8.93601 165.638 9.41601C165.39 9.88801 165.03 10.272 164.558 10.568C164.094 10.856 163.53 11 162.866 11H162.674V13.556H161.066ZM160.886 9.71601H161.15V6.00801H160.886C160.582 6.00801 160.31 6.08801 160.07 6.24801C159.838 6.40801 159.654 6.62801 159.518 6.90801C159.382 7.18801 159.314 7.50801 159.314 7.86801C159.314 8.22801 159.382 8.54801 159.518 8.82801C159.654 9.10801 159.838 9.32801 160.07 9.48801C160.302 9.64001 160.574 9.71601 160.886 9.71601ZM162.602 9.71601H162.866C163.178 9.71601 163.45 9.64001 163.682 9.48801C163.922 9.32801 164.106 9.10801 164.234 8.82801C164.37 8.54801 164.438 8.22801 164.438 7.86801C164.438 7.50801 164.37 7.18801 164.234 6.90801C164.098 6.62801 163.914 6.40801 163.682 6.24801C163.45 6.08801 163.178 6.00801 162.866 6.00801H162.602V9.71601Z" fill="#A3A3A3"/>
<path d="M169.996 11.12C169.492 11.12 169.036 11.036 168.628 10.868C168.22 10.692 167.872 10.456 167.584 10.16C167.296 9.85601 167.072 9.51201 166.912 9.12801C166.76 8.73601 166.684 8.32401 166.684 7.89201C166.684 7.29201 166.816 6.74401 167.08 6.24801C167.352 5.75201 167.736 5.35601 168.232 5.06001C168.736 4.75601 169.328 4.60401 170.008 4.60401C170.696 4.60401 171.284 4.75601 171.772 5.06001C172.26 5.35601 172.632 5.75201 172.888 6.24801C173.152 6.73601 173.284 7.26401 173.284 7.83201C173.284 7.92801 173.28 8.02801 173.272 8.13201C173.264 8.22801 173.256 8.30801 173.248 8.37201H168.388C168.42 8.69201 168.512 8.97201 168.664 9.21201C168.824 9.45201 169.024 9.63601 169.264 9.76401C169.512 9.88401 169.776 9.94401 170.056 9.94401C170.376 9.94401 170.676 9.86801 170.956 9.71601C171.244 9.55601 171.44 9.34801 171.544 9.09201L172.924 9.47601C172.772 9.79601 172.552 10.08 172.264 10.328C171.984 10.576 171.652 10.772 171.268 10.916C170.884 11.052 170.46 11.12 169.996 11.12ZM168.352 7.35201H171.64C171.608 7.03201 171.516 6.75601 171.364 6.52401C171.22 6.28401 171.028 6.10001 170.788 5.97201C170.548 5.83601 170.28 5.76801 169.984 5.76801C169.696 5.76801 169.432 5.83601 169.192 5.97201C168.96 6.10001 168.768 6.28401 168.616 6.52401C168.472 6.75601 168.384 7.03201 168.352 7.35201Z" fill="#A3A3A3"/>
<path d="M178.031 11.12C177.543 11.12 177.111 11.012 176.735 10.796C176.367 10.572 176.079 10.272 175.871 9.89601V13.556H174.263V4.71201H175.667V5.79201C175.907 5.42401 176.211 5.13601 176.579 4.92801C176.947 4.71201 177.367 4.60401 177.839 4.60401C178.263 4.60401 178.651 4.68801 179.003 4.85601C179.363 5.02401 179.675 5.26001 179.939 5.56401C180.203 5.86001 180.407 6.20401 180.551 6.59601C180.703 6.98001 180.779 7.39601 180.779 7.84401C180.779 8.45201 180.659 9.00401 180.419 9.50001C180.187 9.99601 179.863 10.392 179.447 10.688C179.039 10.976 178.567 11.12 178.031 11.12ZM177.491 9.75201C177.739 9.75201 177.963 9.70001 178.163 9.59601C178.363 9.49201 178.535 9.35201 178.679 9.17601C178.831 8.99201 178.943 8.78801 179.015 8.56401C179.095 8.33201 179.135 8.09201 179.135 7.84401C179.135 7.58001 179.091 7.33601 179.003 7.11201C178.923 6.88801 178.803 6.69201 178.643 6.52401C178.483 6.34801 178.295 6.21201 178.079 6.11601C177.871 6.02001 177.643 5.97201 177.395 5.97201C177.243 5.97201 177.087 6.00001 176.927 6.05601C176.775 6.10401 176.627 6.17601 176.483 6.27201C176.339 6.36801 176.211 6.48001 176.099 6.60801C175.995 6.73601 175.919 6.87601 175.871 7.02801V8.50401C175.967 8.73601 176.095 8.94801 176.255 9.14001C176.423 9.33201 176.615 9.48401 176.831 9.59601C177.047 9.70001 177.267 9.75201 177.491 9.75201Z" fill="#A3A3A3"/>
<path d="M0.496002 6.24001C0.496002 5.54667 0.618669 4.86934 0.864002 4.20801C1.12 3.53601 1.488 2.92801 1.968 2.38401C2.448 1.82934 3.03467 1.39201 3.728 1.07201C4.42134 0.74134 5.21067 0.576007 6.096 0.576007C7.14134 0.576007 8.04267 0.80534 8.8 1.26401C9.568 1.72267 10.1387 2.32001 10.512 3.05601L8.816 4.22401C8.624 3.79734 8.37334 3.46134 8.064 3.21601C7.75467 2.96001 7.424 2.78401 7.072 2.68801C6.72 2.58134 6.37334 2.52801 6.032 2.52801C5.47734 2.52801 4.992 2.64001 4.576 2.86401C4.17067 3.08801 3.82934 3.38134 3.552 3.74401C3.27467 4.10667 3.06667 4.51201 2.928 4.96001C2.8 5.40801 2.736 5.85601 2.736 6.30401C2.736 6.80534 2.816 7.29067 2.976 7.76001C3.136 8.21867 3.36 8.62934 3.648 8.99201C3.94667 9.34401 4.29867 9.62667 4.704 9.84001C5.12 10.0427 5.57334 10.144 6.064 10.144C6.416 10.144 6.77334 10.0853 7.136 9.96801C7.49867 9.85067 7.83467 9.66401 8.144 9.40801C8.45334 9.15201 8.69334 8.82134 8.864 8.41601L10.672 9.45601C10.448 10.0213 10.08 10.5013 9.568 10.896C9.06667 11.2907 8.50134 11.5893 7.872 11.792C7.24267 11.9947 6.61867 12.096 6 12.096C5.18934 12.096 4.448 11.9307 3.776 11.6C3.104 11.2587 2.52267 10.8107 2.032 10.256C1.552 9.69067 1.17334 9.06134 0.896002 8.36801C0.629336 7.66401 0.496002 6.95467 0.496002 6.24001Z" fill="white"/>
<path d="M11.9448 12V3.63201H14.0888V9.13601L17.8488 3.61601H19.8008V12H17.6568V6.62401L13.9448 12H11.9448Z" fill="white"/>
<path d="M21.7573 12V3.61601H23.9973L26.6213 8.46401L29.2613 3.61601H31.4693V12H29.4373V6.57601L27.2933 10.512H25.9493L23.7893 6.57601V12H21.7573Z" fill="white"/>
<path d="M37.3488 15.408V12H37.1088C36.2234 12 35.4661 11.808 34.8368 11.424C34.2181 11.0293 33.7434 10.5173 33.4128 9.88801C33.0821 9.24801 32.9168 8.56001 32.9168 7.82401C32.9168 7.06667 33.0821 6.37334 33.4128 5.74401C33.7541 5.10401 34.2341 4.59201 34.8528 4.20801C35.4821 3.82401 36.2341 3.63201 37.1088 3.63201H37.3488V0.320007H39.4928V3.63201H39.7488C40.6234 3.63201 41.3754 3.82401 42.0048 4.20801C42.6341 4.59201 43.1141 5.10401 43.4448 5.74401C43.7754 6.37334 43.9408 7.06667 43.9408 7.82401C43.9408 8.56001 43.7754 9.24801 43.4448 9.88801C43.1141 10.5173 42.6341 11.0293 42.0048 11.424C41.3861 11.808 40.6341 12 39.7488 12H39.4928V15.408H37.3488ZM37.1088 10.288H37.4608V5.34401H37.1088C36.7034 5.34401 36.3408 5.45067 36.0208 5.66401C35.7114 5.87734 35.4661 6.17067 35.2848 6.54401C35.1034 6.91734 35.0128 7.34401 35.0128 7.82401C35.0128 8.30401 35.1034 8.73067 35.2848 9.10401C35.4661 9.47734 35.7114 9.77067 36.0208 9.98401C36.3301 10.1867 36.6928 10.288 37.1088 10.288ZM39.3968 10.288H39.7488C40.1648 10.288 40.5274 10.1867 40.8368 9.98401C41.1568 9.77067 41.4021 9.47734 41.5728 9.10401C41.7541 8.73067 41.8448 8.30401 41.8448 7.82401C41.8448 7.34401 41.7541 6.91734 41.5728 6.54401C41.3914 6.17067 41.1461 5.87734 40.8368 5.66401C40.5274 5.45067 40.1648 5.34401 39.7488 5.34401H39.3968V10.288Z" fill="white"/>
<path d="M49.2546 12.16C48.5826 12.16 47.9746 12.048 47.4306 11.824C46.8866 11.5893 46.4226 11.2747 46.0386 10.88C45.6546 10.4747 45.356 10.016 45.1426 9.50401C44.94 8.98134 44.8386 8.43201 44.8386 7.85601C44.8386 7.05601 45.0146 6.32534 45.3666 5.66401C45.7293 5.00267 46.2413 4.47467 46.9026 4.08001C47.5746 3.67467 48.364 3.47201 49.2706 3.47201C50.188 3.47201 50.972 3.67467 51.6226 4.08001C52.2733 4.47467 52.7693 5.00267 53.1106 5.66401C53.4626 6.31467 53.6386 7.01867 53.6386 7.77601C53.6386 7.90401 53.6333 8.03734 53.6226 8.17601C53.612 8.30401 53.6013 8.41068 53.5906 8.49601H47.1106C47.1533 8.92267 47.276 9.29601 47.4786 9.61601C47.692 9.93601 47.9586 10.1813 48.2786 10.352C48.6093 10.512 48.9613 10.592 49.3346 10.592C49.7613 10.592 50.1613 10.4907 50.5346 10.288C50.9186 10.0747 51.18 9.79734 51.3186 9.45601L53.1586 9.96801C52.956 10.3947 52.6626 10.7733 52.2786 11.104C51.9053 11.4347 51.4626 11.696 50.9506 11.888C50.4386 12.0693 49.8733 12.16 49.2546 12.16ZM47.0626 7.13601H51.4466C51.404 6.70934 51.2813 6.34134 51.0786 6.03201C50.8866 5.71201 50.6306 5.46667 50.3106 5.29601C49.9906 5.11467 49.6333 5.02401 49.2386 5.02401C48.8546 5.02401 48.5026 5.11467 48.1826 5.29601C47.8733 5.46667 47.6173 5.71201 47.4146 6.03201C47.2226 6.34134 47.1053 6.70934 47.0626 7.13601Z" fill="white"/>
<path d="M59.9688 12.16C59.3181 12.16 58.7421 12.016 58.2408 11.728C57.7501 11.4293 57.3661 11.0293 57.0888 10.528V15.408H54.9448V3.61601H56.8168V5.05601C57.1368 4.56534 57.5421 4.18134 58.0328 3.90401C58.5234 3.61601 59.0834 3.47201 59.7128 3.47201C60.2781 3.47201 60.7954 3.58401 61.2648 3.80801C61.7448 4.03201 62.1608 4.34667 62.5128 4.75201C62.8648 5.14667 63.1368 5.60534 63.3288 6.12801C63.5314 6.64001 63.6328 7.19467 63.6328 7.79201C63.6328 8.60267 63.4728 9.33867 63.1528 10C62.8434 10.6613 62.4114 11.1893 61.8568 11.584C61.3128 11.968 60.6834 12.16 59.9688 12.16ZM59.2488 10.336C59.5794 10.336 59.8781 10.2667 60.1448 10.128C60.4114 9.98934 60.6408 9.80267 60.8328 9.56801C61.0354 9.32267 61.1848 9.05067 61.2808 8.75201C61.3874 8.44267 61.4408 8.12267 61.4408 7.79201C61.4408 7.44001 61.3821 7.11467 61.2648 6.81601C61.1581 6.51734 60.9981 6.25601 60.7848 6.03201C60.5714 5.79734 60.3208 5.61601 60.0328 5.48801C59.7554 5.36001 59.4514 5.29601 59.1208 5.29601C58.9181 5.29601 58.7101 5.33334 58.4968 5.40801C58.2941 5.47201 58.0968 5.56801 57.9048 5.69601C57.7127 5.82401 57.5421 5.97334 57.3928 6.14401C57.2541 6.31467 57.1528 6.50134 57.0888 6.70401V8.67201C57.2168 8.98134 57.3874 9.26401 57.6008 9.52001C57.8248 9.77601 58.0808 9.97867 58.3688 10.128C58.6568 10.2667 58.9501 10.336 59.2488 10.336Z" fill="white"/>
<path d="M68.9574 12.16C68.2747 12.16 67.6614 12.048 67.1174 11.824C66.5734 11.5893 66.1094 11.2693 65.7254 10.864C65.352 10.4587 65.064 9.99467 64.8614 9.47201C64.6587 8.94934 64.5574 8.40001 64.5574 7.82401C64.5574 7.23734 64.6587 6.68267 64.8614 6.16001C65.064 5.63734 65.352 5.17334 65.7254 4.76801C66.1094 4.36267 66.5734 4.04801 67.1174 3.82401C67.6614 3.58934 68.2747 3.47201 68.9574 3.47201C69.64 3.47201 70.248 3.58934 70.7814 3.82401C71.3254 4.04801 71.7894 4.36267 72.1734 4.76801C72.5574 5.17334 72.8454 5.63734 73.0374 6.16001C73.24 6.68267 73.3414 7.23734 73.3414 7.82401C73.3414 8.40001 73.24 8.94934 73.0374 9.47201C72.8454 9.99467 72.5574 10.4587 72.1734 10.864C71.8 11.2693 71.3414 11.5893 70.7974 11.824C70.2534 12.048 69.64 12.16 68.9574 12.16ZM66.7654 7.82401C66.7654 8.31467 66.8614 8.75201 67.0534 9.13601C67.2454 9.50934 67.5067 9.80267 67.8374 10.016C68.168 10.2293 68.5414 10.336 68.9574 10.336C69.3627 10.336 69.7307 10.2293 70.0614 10.016C70.392 9.79201 70.6534 9.49334 70.8454 9.12001C71.048 8.73601 71.1494 8.29867 71.1494 7.80801C71.1494 7.32801 71.048 6.89601 70.8454 6.51201C70.6534 6.12801 70.392 5.82934 70.0614 5.61601C69.7307 5.40267 69.3627 5.29601 68.9574 5.29601C68.5414 5.29601 68.168 5.40801 67.8374 5.63201C67.5067 5.84534 67.2454 6.14401 67.0534 6.52801C66.8614 6.90134 66.7654 7.33334 66.7654 7.82401Z" fill="white"/>
<path d="M74.7885 12V3.61601H82.3085V12H80.1645V5.48801H76.9325V12H74.7885Z" fill="white"/>
<path d="M88.1292 12.16C87.4466 12.16 86.8333 12.048 86.2893 11.824C85.7453 11.5893 85.2813 11.2693 84.8973 10.864C84.5239 10.4587 84.2359 9.99467 84.0332 9.47201C83.8306 8.94934 83.7293 8.40001 83.7293 7.82401C83.7293 7.23734 83.8306 6.68267 84.0332 6.16001C84.2359 5.63734 84.5239 5.17334 84.8973 4.76801C85.2813 4.36267 85.7453 4.04801 86.2893 3.82401C86.8333 3.58934 87.4466 3.47201 88.1292 3.47201C88.8119 3.47201 89.4199 3.58934 89.9533 3.82401C90.4973 4.04801 90.9613 4.36267 91.3453 4.76801C91.7293 5.17334 92.0173 5.63734 92.2093 6.16001C92.4119 6.68267 92.5133 7.23734 92.5133 7.82401C92.5133 8.40001 92.4119 8.94934 92.2093 9.47201C92.0173 9.99467 91.7293 10.4587 91.3453 10.864C90.9719 11.2693 90.5133 11.5893 89.9693 11.824C89.4253 12.048 88.8119 12.16 88.1292 12.16ZM85.9373 7.82401C85.9373 8.31467 86.0332 8.75201 86.2253 9.13601C86.4173 9.50934 86.6786 9.80267 87.0093 10.016C87.3399 10.2293 87.7132 10.336 88.1292 10.336C88.5346 10.336 88.9026 10.2293 89.2333 10.016C89.5639 9.79201 89.8252 9.49334 90.0173 9.12001C90.2199 8.73601 90.3213 8.29867 90.3213 7.80801C90.3213 7.32801 90.2199 6.89601 90.0173 6.51201C89.8252 6.12801 89.5639 5.82934 89.2333 5.61601C88.9026 5.40267 88.5346 5.29601 88.1292 5.29601C87.7132 5.29601 87.3399 5.40801 87.0093 5.63201C86.6786 5.84534 86.4173 6.14401 86.2253 6.52801C86.0332 6.90134 85.9373 7.33334 85.9373 7.82401Z" fill="white"/>
<path d="M93.3524 12.112V10.208C93.6084 10.1973 93.8377 10.1333 94.0404 10.016C94.243 9.89867 94.419 9.70134 94.5684 9.42401C94.7284 9.13601 94.851 8.73601 94.9364 8.22401C95.0324 7.71201 95.0964 7.05601 95.1284 6.25601L95.2404 3.61601H101.528V12H99.3844V5.48801H97.1284L97.0964 6.46401C97.0537 7.56267 96.947 8.47467 96.7764 9.20001C96.6057 9.92534 96.3657 10.5013 96.0564 10.928C95.7577 11.344 95.3844 11.6427 94.9364 11.824C94.4884 12.0053 93.9604 12.1013 93.3524 12.112Z" fill="white"/>
<path d="M103.476 12V3.61601H105.62V6.25601H107.524C108.527 6.25601 109.295 6.51201 109.828 7.02401C110.361 7.53601 110.628 8.21334 110.628 9.05601C110.628 9.62134 110.516 10.128 110.292 10.576C110.068 11.024 109.737 11.376 109.3 11.632C108.863 11.8773 108.319 12 107.668 12H103.476ZM105.62 10.368H107.332C107.62 10.368 107.855 10.3093 108.036 10.192C108.228 10.0747 108.367 9.92001 108.452 9.72801C108.548 9.53601 108.596 9.31734 108.596 9.07201C108.596 8.83734 108.553 8.62934 108.468 8.44801C108.383 8.25601 108.244 8.10667 108.052 8.00001C107.871 7.88267 107.625 7.82401 107.316 7.82401H105.62V10.368Z" fill="white"/>
<path d="M121.736 0.640007L113.8 12H111.432L119.352 0.640007H121.736Z" fill="white"/>
</svg>
